<?xml version="1.0" encoding="UTF-8" standalone="no"?>
<!-- Created with Inkscape (http://www.inkscape.org/) -->

<svg
   version="1.1"
   id="svg1"
   width="93.95031"
   height="66.039482"
   viewBox="0 0 93.95031 66.039482"
   sodipodi:docname="lolspade.svg"
   inkscape:version="1.3 (0e150ed6c4, 2023-07-21)"
   xml:space="preserve"
   xmlns:inkscape="http://www.inkscape.org/namespaces/inkscape"
   xmlns:sodipodi="http://sodipodi.sourceforge.net/DTD/sodipodi-0.dtd"
   xmlns="http://www.w3.org/2000/svg"
   xmlns:svg="http://www.w3.org/2000/svg"><defs
     id="defs1" /><sodipodi:namedview
     id="namedview1"
     pagecolor="#676767"
     bordercolor="#999999"
     borderopacity="1"
     inkscape:showpageshadow="0"
     inkscape:pageopacity="0"
     inkscape:pagecheckerboard="0"
     inkscape:deskcolor="#d1d1d1"
     inkscape:zoom="8.5952881"
     inkscape:cx="49.678381"
     inkscape:cy="27.864104"
     inkscape:window-width="1885"
     inkscape:window-height="1190"
     inkscape:window-x="0"
     inkscape:window-y="0"
     inkscape:window-maximized="1"
     inkscape:current-layer="g1"
     showgrid="false" /><g
     inkscape:groupmode="layer"
     inkscape:label="Image"
     id="g1"
     transform="translate(-1.1127119,-7.1674073)"><path
       style="fill:#ffffff;stroke:none;stroke-width:1px;stroke-linecap:butt;stroke-linejoin:miter;stroke-opacity:1"
       d="m 92.441506,71.828929 c -0.437401,-5.600115 -8.908548,-12.231166 -8.908548,-12.231166 0,0 0.225318,-13.119347 -5.888956,-24.563997 C 71.529727,23.589115 69.178032,22.020988 64.004237,18.258408 58.830442,14.495829 50.521054,11.046743 45.817664,9.7924391 41.114274,8.5381356 38.606451,8.0854244 34.873273,7.6275562 28.766766,6.8786028 29.391589,7.2692309 29.391589,7.2692309 c 1.207392,4.4332681 1.366851,8.5581841 2.143352,12.7594041 0,0 -3.953384,-3.128804 -4.742535,-3.880346 -3.292506,-3.135594 -4.546561,-4.193923 -4.546561,-4.193923 0,0 -1.323159,1.405754 -1.793481,2.699203 -0.470323,1.293448 -1.926891,5.417439 -2.554042,8.357057 -0.627152,2.939619 -1.293532,6.075129 -1.332677,9.053976 -0.03915,2.978847 0.313576,5.957611 0.313576,5.957611 0,0 -0.940562,-1.254138 -2.194866,-2.077265 -1.254303,-0.823126 -3.605998,-2.077347 -4.9385923,-1.998973 -1.332594,0.07837 -1.8887381,0.975652 -2.2806872,3.209745 -0.3919492,2.234094 0.5867651,4.666397 0.939569,5.881389 0.3528039,1.214993 2.1055495,4.825593 2.1055495,4.825593 z"
       id="path983"
       sodipodi:nodetypes="ccssssccscssscsssscc" /><path
       style="fill:#030303;stroke:none"
       d="m 30.72,8.32 1.92,13.76 -10.56,-8.96 c -3.392649,6.438501 -5.115903,16.456333 -4.425679,23.68 0.39752,4.160308 1.901962,8.072051 2.505679,12.16 H 19.84 C 18.628286,41.918213 16.635295,37.493071 9.6,35.2 c -1.5746906,3.216841 -0.7047363,9.276016 2.345186,11.570122 2.074397,1.560332 5.662166,1.822759 8.123457,2.476792 3.346198,0.88918 6.553244,2.447041 10.011357,2.913086 -0.988311,-3.038379 -4.112507,-9.092397 -2.002468,-12.125186 1.248943,-1.795122 3.456406,-1.247705 5.202468,-0.649628 3.496121,1.197522 7.380964,3.368437 8,7.334814 h -0.32 c -1.561155,-3.280918 -4.569292,-5.198335 -8,-6.161235 -1.31489,-0.369053 -3.557612,-1.085161 -4.058271,0.74 -0.740335,2.698911 1.274052,10.303774 3.771853,11.724199 C 36.901763,55.427402 43.018804,56.112188 47.68,57.510371 58.967661,60.896235 70.263179,64.302896 81.6,67.52 83.000596,49.772515 76.216514,29.182549 61.12,18.889136 52.134883,12.76272 41.178057,10.261567 30.72,8.32 M 41.6,33.6 c 0.802773,-2.532422 0.738667,-5.041563 -1.92,-6.4 0.415798,-0.991216 0.847834,-1.976924 1.668149,-2.709385 5.431602,-4.849897 14.34814,5.194966 6.651607,9.57877 C 47.121909,34.56939 46.134189,34.861748 45.12,34.853335 43.80498,34.842427 42.706357,34.242568 41.6,33.6 M 83.52,60.8 84.168887,67.927158 90.56,70.08 C 89.511357,66.918394 86.092773,62.88103 83.52,60.8 Z"
       id="path1"
       sodipodi:nodetypes="cccscccsscssccsssscscccsssccccc" /><path
       style="fill:#ffffff;stroke:#ffffff;stroke-width:1.8;stroke-linecap:round;stroke-linejoin:miter;stroke-dasharray:none;stroke-opacity:1"
       d="M 94.199219,72.343088 2.0127119,45.377052"
       id="path982" /><path
       style="fill:#000000;stroke:none;stroke-width:1px;stroke-linecap:butt;stroke-linejoin:miter;stroke-opacity:1"
       d="m 33.638484,52.462206 c -2.826858,-0.221673 -5.155011,-3.602831 -5.376684,-5.875507 -0.221673,-2.272676 -0.831567,-5.653835 -0.05548,-6.097298 0.77609,-0.443464 4.489992,-1.27503 6.208251,-0.388104 1.71826,0.886927 5.154895,3.547472 5.598358,4.434399"
       id="path14" /><path
       d="m 30.089366,52.166254 c -0.988311,-3.038379 -4.112507,-9.092397 -2.002468,-12.125186 1.248943,-1.795122 3.456406,-1.247705 5.202468,-0.649628 3.496121,1.197522 7.380964,3.368437 8,7.334814 h -0.32 c -1.561155,-3.280918 -4.569292,-5.198335 -8,-6.161235 -1.31489,-0.369053 -3.557612,-1.085161 -4.058271,0.74 -0.740335,2.698911 1.274052,10.303774 3.771853,11.724199"
       style="fill:#ffffff;stroke:none"
       id="path1-0" /></g></svg>
