<?xml version="1.0" encoding="UTF-8" standalone="no"?>
<!-- Created with Inkscape (http://www.inkscape.org/) -->

<svg
   version="1.1"
   id="svg1"
   width="93.95031"
   height="66.039482"
   viewBox="0 0 93.95031 66.039482"
   sodipodi:docname="lolspade_orange.svg"
   inkscape:version="1.3.2 (091e20ef0f, 2023-11-25, custom)"
   xml:space="preserve"
   xmlns:inkscape="http://www.inkscape.org/namespaces/inkscape"
   xmlns:sodipodi="http://sodipodi.sourceforge.net/DTD/sodipodi-0.dtd"
   xmlns="http://www.w3.org/2000/svg"
   xmlns:svg="http://www.w3.org/2000/svg"><defs
     id="defs1" /><sodipodi:namedview
     id="namedview1"
     pagecolor="#676767"
     bordercolor="#999999"
     borderopacity="1"
     inkscape:showpageshadow="0"
     inkscape:pageopacity="0"
     inkscape:pagecheckerboard="0"
     inkscape:deskcolor="#d1d1d1"
     inkscape:zoom="19.560889"
     inkscape:cx="20.730142"
     inkscape:cy="36.910388"
     inkscape:window-width="2523"
     inkscape:window-height="1428"
     inkscape:window-x="0"
     inkscape:window-y="0"
     inkscape:window-maximized="0"
     inkscape:current-layer="g1"
     showgrid="false" /><g
     inkscape:groupmode="layer"
     inkscape:label="Image"
     id="g1"
     transform="translate(-1.1127119,-7.1674073)"><path
       style="fill:#ff6600;stroke:none;stroke-width:1px;stroke-linecap:butt;stroke-linejoin:miter;stroke-opacity:1"
       d="m 92.441506,71.828929 c -0.437401,-5.600115 -8.908548,-12.231166 -8.908548,-12.231166 0,0 0.225318,-13.119347 -5.888956,-24.563997 C 71.529727,23.589115 69.178032,22.020988 64.004237,18.258408 58.830442,14.495829 50.521054,11.046743 45.817664,9.7924391 41.114274,8.5381356 38.606451,8.0854244 34.873273,7.6275562 28.766766,6.8786028 29.391589,7.2692309 29.391589,7.2692309 c 1.207392,4.4332681 1.366851,8.5581841 2.143352,12.7594041 0,0 -3.953384,-3.128804 -4.742535,-3.880346 -3.292506,-3.135594 -4.546561,-4.193923 -4.546561,-4.193923 0,0 -1.323159,1.405754 -1.793481,2.699203 -0.470323,1.293448 -1.926891,5.417439 -2.554042,8.357057 -0.627152,2.939619 -1.293532,6.075129 -1.332677,9.053976 -0.03915,2.978847 0.313576,5.957611 0.313576,5.957611 0,0 -0.940562,-1.254138 -2.194866,-2.077265 -1.254303,-0.823126 -3.605998,-2.077347 -4.9385923,-1.998973 -1.332594,0.07837 -1.8887381,0.975652 -2.2806872,3.209745 -0.3919492,2.234094 0.5867651,4.666397 0.939569,5.881389 0.3528039,1.214993 2.1055495,4.825593 2.1055495,4.825593 z"
       id="path983"
       sodipodi:nodetypes="ccssssccscssscsssscc" /><path
       style="fill:#030303;stroke:none"
       d="m 31.735518,8.788692 1.92,14.619251 -11.341226,-8.452296 c -3.392649,6.438501 -3.905107,15.401803 -3.214883,22.62547 0.39752,4.160308 0.421403,6.77673 1.02512,10.864679 -0.253327,1.137783 -0.586519,0.758163 -0.940567,-0.01771 C 17.972248,41.386298 16.635295,37.493071 9.6,35.2 c -1.5746906,3.216841 -0.7047363,9.276016 2.345186,11.570122 2.074397,1.560332 5.421912,3.164269 7.883203,3.818302 3.346198,0.88918 12.865515,3.48925 16.323628,3.955295 -0.988311,-3.038379 -4.112507,-9.092397 -2.002468,-12.125186 1.248943,-1.795122 3.456406,-1.247705 5.202468,-0.649628 3.496121,1.197522 7.380964,3.368437 8,7.334814 h -0.32 c -1.561155,-3.280918 -4.569292,-5.198335 -8,-6.161235 -1.31489,-0.369053 -3.557612,-1.085161 -4.058271,0.74 -0.740335,2.698911 -4.797965,7.920055 -2.300164,9.34048 4.228181,2.404438 10.12538,3.528909 14.786576,4.927092 11.287661,3.385864 22.67921,6.674734 34.016031,9.891838 C 82.876785,50.094409 76.216514,29.182549 61.12,18.889136 52.134883,12.76272 42.193575,10.730259 31.735518,8.788692 m 51.937609,53.328186 0.403815,6.637184 6.391113,2.152842 C 89.419412,67.745298 86.2459,64.197908 83.673127,62.116878 Z"
       id="path1"
       sodipodi:nodetypes="cccscccsscssccsssscsccccc" /><path
       style="fill:#80b3ff;stroke:#80b3ff;stroke-width:1.8;stroke-linecap:round;stroke-linejoin:miter;stroke-dasharray:none;stroke-opacity:1"
       d="M 94.199219,72.343088 2.0127119,45.377052"
       id="path982" /><path
       style="fill:#000000;stroke:none;stroke-width:1px;stroke-linecap:butt;stroke-linejoin:miter;stroke-opacity:1"
       d="m 40.602745,55.185946 c -2.826858,-0.221673 -5.155011,-3.602831 -5.376684,-5.875507 -0.221673,-2.272676 -0.831567,-5.653835 -0.05548,-6.097298 0.77609,-0.443464 4.489992,-1.27503 6.208251,-0.388104 1.71826,0.886927 5.154895,3.547472 5.598358,4.434399"
       id="path14" /><path
       d="m 36.101679,54.426342 c -0.988311,-3.038379 -4.062169,-8.97502 -1.95213,-12.007809 1.248943,-1.795122 3.456406,-1.247705 5.202468,-0.649628 3.496121,1.197522 7.380964,3.368437 8,7.334814 h -0.32 c -1.561155,-3.280918 -4.569292,-5.198335 -8,-6.161235 -1.31489,-0.369053 -3.557612,-1.085161 -4.058271,0.74 -0.740335,2.698911 1.458468,10.136106 3.956269,11.556531"
       style="fill:#ff6600;stroke:none"
       id="path1-0"
       sodipodi:nodetypes="cssccssc" /><path
       style="fill:#f9f9f9;fill-opacity:1;stroke:none;stroke-width:1px;stroke-linecap:butt;stroke-linejoin:miter;stroke-opacity:1"
       d="m 41.6,33.6 c 2.512214,2.555657 5.89686,0.72724 6.399756,0.469385 0.579189,-0.296974 2.320031,-1.308698 2.860673,-3.410233 0.137284,-1.225134 0.39879,-2.993142 -1.732178,-5.377577 C 48.299183,24.454598 47.34005,23.68104 45.492947,23.272182 44.465837,23.025633 43.29361,23.239255 41.939718,24.028936 40.714626,24.832746 40.162612,25.997751 39.68,27.2 c 3.017636,1.730197 2.466454,4.065499 1.92,6.4 z"
       id="path2"
       sodipodi:nodetypes="cscccccc" /><path
       id="rect2"
       style="fill:#ffee00;fill-opacity:1;stroke:none;stroke-width:1.00157;stroke-linecap:round;stroke-opacity:1;paint-order:stroke fill markers"
       d="M 9.364665 11.714282 L 5.1244306 12.55022 L 7.50529 24.601001 L -4.6548662 27.003345 L -3.8169756 31.243579 L 8.3431807 28.841235 L 14.075603 57.849048 L 18.313884 57.011157 L 12.583415 28.003345 L 17.087321 27.11272 C 17.326118 25.727522 17.612561 24.348466 17.897868 23.011157 C 17.93023 22.859468 17.984385 22.680321 18.020915 22.522876 L 11.745524 23.76311 L 9.364665 11.714282 z " /></g></svg>
