<?xml version="1.0" encoding="UTF-8" standalone="no"?>
<!-- Created with Inkscape (http://www.inkscape.org/) -->

<svg
   width="61.078602mm"
   height="51.081772mm"
   viewBox="0 0 61.078602 51.081772"
   version="1.1"
   id="svg1"
   xml:space="preserve"
   inkscape:version="1.3 (0e150ed6c4, 2023-07-21)"
   sodipodi:docname="spadecelebrate.svg"
   inkscape:export-filename="spadecelebrate.png"
   inkscape:export-xdpi="207.92879"
   inkscape:export-ydpi="207.92879"
   xmlns:inkscape="http://www.inkscape.org/namespaces/inkscape"
   xmlns:sodipodi="http://sodipodi.sourceforge.net/DTD/sodipodi-0.dtd"
   xmlns:xlink="http://www.w3.org/1999/xlink"
   xmlns="http://www.w3.org/2000/svg"
   xmlns:svg="http://www.w3.org/2000/svg"><sodipodi:namedview
     id="namedview1"
     pagecolor="#505050"
     bordercolor="#eeeeee"
     borderopacity="1"
     inkscape:showpageshadow="0"
     inkscape:pageopacity="0"
     inkscape:pagecheckerboard="0"
     inkscape:deskcolor="#d1d1d1"
     inkscape:document-units="mm"
     inkscape:zoom="1.4639531"
     inkscape:cx="71.72361"
     inkscape:cy="56.012724"
     inkscape:window-width="2560"
     inkscape:window-height="1366"
     inkscape:window-x="0"
     inkscape:window-y="0"
     inkscape:window-maximized="1"
     inkscape:current-layer="layer1" /><defs
     id="defs1"><linearGradient
       id="linearGradient7"
       inkscape:collect="always"><stop
         style="stop-color:#005bca;stop-opacity:1;"
         offset="0"
         id="stop7" /><stop
         style="stop-color:#007fff;stop-opacity:1;"
         offset="0.47643289"
         id="stop8" /></linearGradient><linearGradient
       id="linearGradient5"
       inkscape:collect="always"><stop
         style="stop-color:#0036d0;stop-opacity:1;"
         offset="0"
         id="stop5" /><stop
         style="stop-color:#0074ff;stop-opacity:1;"
         offset="1"
         id="stop6" /></linearGradient><linearGradient
       inkscape:collect="always"
       xlink:href="#linearGradient5"
       id="linearGradient6"
       x1="124.58913"
       y1="149.47234"
       x2="138.61298"
       y2="149.47234"
       gradientUnits="userSpaceOnUse" /><linearGradient
       inkscape:collect="always"
       xlink:href="#linearGradient7"
       id="linearGradient8"
       x1="130.14236"
       y1="150.70126"
       x2="135.38348"
       y2="150.70126"
       gradientUnits="userSpaceOnUse" /></defs><g
     inkscape:label="Layer 1"
     inkscape:groupmode="layer"
     id="layer1"
     transform="translate(-83.605608,-116.05585)"><g
       id="g5"><path
         sodipodi:type="spiral"
         style="fill:none;fill-rule:evenodd;stroke:url(#linearGradient8);stroke-width:1.06888;stroke-linecap:round;stroke-dasharray:none"
         id="path3"
         sodipodi:cx="132.41924"
         sodipodi:cy="150.35692"
         sodipodi:expansion="1"
         sodipodi:revolution="2.0170517"
         sodipodi:radius="2.7894421"
         sodipodi:argument="-17.278759"
         sodipodi:t0="0.25995159"
         d="m 132.52968,149.64026 c 0.51517,-0.0735 0.92376,0.3952 0.94791,0.87976 0.035,0.70252 -0.60262,1.23613 -1.27412,1.23696 -0.8889,0.001 -1.55059,-0.81042 -1.52599,-1.66848 0.0308,-1.07506 1.01836,-1.86613 2.06284,-1.81504 1.26114,0.0617 2.18227,1.22638 2.10407,2.4572 -0.0888,1.3972 -1.34954,2.43873 -2.72344,2.39971"
         transform="matrix(1.8711214,0,0,1.8711214,-108.63471,-137.05433)" /><path
         style="fill:none;stroke:url(#linearGradient6);stroke-width:2;stroke-linecap:butt;stroke-linejoin:miter;stroke-dasharray:none"
         d="M 138.61297,149.47233 H 124.58913"
         id="path4" /></g><g
       id="g8"
       transform="matrix(1.2342628,0,0,1.2342628,-25.378342,-31.76182)"><path
         style="fill:#ffa700;fill-opacity:1;stroke:none;stroke-width:0.234;stroke-linecap:butt;stroke-linejoin:miter;stroke-dasharray:none;stroke-opacity:1"
         d="m 101.88243,139.00983 c 2.22091,-5.46602 7.98084,-13.56365 7.54996,-16.04076 l 4.24833,0.34348 c -0.87048,3.25855 2.80503,11.52654 3.65723,17.44767 z"
         id="path1"
         sodipodi:nodetypes="ccccc" /><g
         id="g2"><circle
           style="fill:#ff6600;fill-opacity:1;stroke:none;stroke-width:0.159285;stroke-linecap:round;stroke-linejoin:round;stroke-dasharray:none"
           id="path2"
           cx="111.42416"
           cy="122.59019"
           r="2.8282769" /><circle
           style="fill:#ff6600;fill-opacity:1;stroke:none;stroke-width:0.0425267;stroke-linecap:round;stroke-linejoin:round;stroke-dasharray:none"
           id="path2-3"
           cx="109.94069"
           cy="126.77119"
           r="0.75510722" /><circle
           style="fill:#ff6600;fill-opacity:1;stroke:none;stroke-width:0.0425267;stroke-linecap:round;stroke-linejoin:round;stroke-dasharray:none"
           id="path2-3-9"
           cx="112.34328"
           cy="128.35614"
           r="0.75510722" /><circle
           style="fill:#ff6600;fill-opacity:1;stroke:none;stroke-width:0.0425267;stroke-linecap:round;stroke-linejoin:round;stroke-dasharray:none"
           id="path2-3-0"
           cx="109.70116"
           cy="129.81062"
           r="0.75510722" /><circle
           style="fill:#ff6600;fill-opacity:1;stroke:none;stroke-width:0.0425267;stroke-linecap:round;stroke-linejoin:round;stroke-dasharray:none"
           id="path2-3-06"
           cx="112.61066"
           cy="131.3403"
           r="0.75510722" /><circle
           style="fill:#ff6600;fill-opacity:1;stroke:none;stroke-width:0.0425267;stroke-linecap:round;stroke-linejoin:round;stroke-dasharray:none"
           id="path2-3-8"
           cx="110.12892"
           cy="132.81482"
           r="0.75510722" /><circle
           style="fill:#ff6600;fill-opacity:1;stroke:none;stroke-width:0.0425267;stroke-linecap:round;stroke-linejoin:round;stroke-dasharray:none"
           id="path2-3-02"
           cx="113.12113"
           cy="134.42142"
           r="0.75510722" /></g></g><g
       inkscape:label="Layer 1"
       id="layer1-3"
       transform="translate(80.686608,126.26771)"><path
         style="fill:#ffffff;stroke-width:1.00157;stroke-linecap:round;stop-color:#000000"
         id="path3164"
         sodipodi:type="arc"
         sodipodi:cx="38.058918"
         sodipodi:cy="19.586395"
         sodipodi:rx="3.7157152"
         sodipodi:ry="3.7157152"
         sodipodi:start="0"
         sodipodi:end="6.2825046"
         sodipodi:open="true"
         sodipodi:arc-type="arc"
         d="m 41.774633,19.586395 a 3.7157152,3.7157152 0 0 1 -3.715083,3.715715 3.7157152,3.7157152 0 0 1 -3.716347,-3.71445 3.7157152,3.7157152 0 0 1 3.713818,-3.716979 3.7157152,3.7157152 0 0 1 3.717611,3.713185" /><path
         id="path857-9-3-8-2-4-2-5-4-4-0-8-4-9-9-6-7-3-4"
         style="fill:#000000;fill-opacity:1;stroke:none;stroke-width:0.264583px;stroke-linecap:butt;stroke-linejoin:miter;stroke-opacity:1"
         d="m 11.72719,3.5953329 c -2.8741203,0.009 -4.3160103,0.87124 -4.3160103,0.87124 l 0.0103,0.0336 -0.0346,-0.008 c 0.11425,0.80915 7.4786103,6.8544101 7.4326203,9.9337801 -0.1733,2.50537 -0.89269,3.19117 -1.44842,4.89122 -4.3304603,-5.86317 -9.8154602,-6.06999 -10.3476902,-6.07663 h -0.0579 l -0.005,0.0206 -0.0191,-0.0135 c -0.25191,0.58857 1.7049899,4.74784 1.7049899,8.64341 0,3.89554 -1.9568999,8.05482 -1.7049899,8.64338 l 0.0191,-0.0145 0.005,0.0212 c 0,0 5.8791999,0.13094 10.5838402,-6.40012 0.51808,1.33266 1.12539,3.62599 0.96164,5.27302 -0.33475,1.84571 -6.7248903,8.84267 -6.8264603,9.61284 l 0.0346,-0.008 -0.0103,0.0341 c 0,0 4.8673803,2.1002 16.4584303,-2.45928 2.70309,-1.06331 4.84249,-1.93694 6.90655,-2.74402 0.25231,3.0203 1.50548,6.6457 1.82058,7.02024 l 0.013,-0.0228 0.013,0.0228 c 0,0 4.90791,-0.9281 6.74637,-11.08874 5.06232,-3.81444 6.13915,-7.95247 6.13915,-7.95247 l -0.0491,-0.0284 0.0491,-0.0284 c 0,0 -1.37107,-9.02922 -19.72437,-14.9774001 -6.07986,-1.97043 -11.54821,-3.20908 -14.35417,-3.19979 z M 38.00672,16.309273 c 1.9254,-3e-5 3.48633,1.5607 3.48662,3.4861 0,0.9217 -0.36673,1.80554 -1.0175,2.45824 -0.62635,-0.52125 -1.4155,-0.80666 -2.23036,-0.80666 -0.92626,0 -1.81409,0.37036 -2.46756,1.02679 -0.7961,-0.66174 -1.2578,-1.64311 -1.2578,-2.67837 2.6e-4,-1.92543 1.56117,-3.48613 3.4866,-3.4861 z"
         sodipodi:nodetypes="ccccccccccsccccccccsccccccccsccsccsccs"
         inkscape:export-filename="/home/ed/spadefish.png"
         inkscape:export-xdpi="300"
         inkscape:export-ydpi="300" /></g><ellipse
       style="fill:#00ff49;fill-opacity:1;stroke:none;stroke-width:2;stroke-linecap:round;stroke-linejoin:round;stroke-dasharray:none;stroke-opacity:1"
       id="path10"
       cx="35.591362"
       cy="159.81656"
       rx="1.6936053"
       ry="2.1258714"
       transform="rotate(-26.137933)" /><ellipse
       style="fill:#ff00e0;fill-opacity:1;stroke:none;stroke-width:2;stroke-linecap:round;stroke-linejoin:round;stroke-dasharray:none;stroke-opacity:1"
       id="path13"
       cx="-114.06445"
       cy="125.52581"
       rx="0.87697738"
       ry="1.1734787"
       transform="rotate(-78.312733)" /><ellipse
       style="fill:#00ff49;fill-opacity:1;stroke:none;stroke-width:2;stroke-linecap:round;stroke-linejoin:round;stroke-dasharray:none;stroke-opacity:1"
       id="path14"
       cx="155.64485"
       cy="92.643913"
       rx="1.5919816"
       ry="2.4837949"
       transform="rotate(18.829186)" /><ellipse
       style="fill:#ff00e0;fill-opacity:1;stroke:none;stroke-width:2;stroke-linecap:round;stroke-linejoin:round;stroke-dasharray:none;stroke-opacity:1"
       id="path15"
       cx="167.0793"
       cy="70.946396"
       rx="1.2656136"
       ry="2.0574374"
       transform="rotate(23.909188)" /><ellipse
       style="fill:#ff00e0;fill-opacity:1;stroke:none;stroke-width:2;stroke-linecap:round;stroke-linejoin:round;stroke-dasharray:none;stroke-opacity:1"
       id="path16"
       cx="67.269676"
       cy="165.69208"
       rx="2.2144537"
       ry="0.94969016"
       transform="rotate(-16.014906)" /><ellipse
       style="fill:#00ff49;fill-opacity:1;stroke:none;stroke-width:2;stroke-linecap:round;stroke-linejoin:round;stroke-dasharray:none;stroke-opacity:1"
       id="path17"
       cx="-28.608719"
       cy="170.29977"
       rx="1.0725316"
       ry="2.0543385"
       transform="rotate(-48.124907)" /><ellipse
       style="fill:#ff00e0;fill-opacity:1;stroke:none;stroke-width:2;stroke-linecap:round;stroke-linejoin:round;stroke-dasharray:none;stroke-opacity:1"
       id="path18"
       cx="124.86785"
       cy="144.46022"
       rx="0.98638767"
       ry="1.9827611" /><ellipse
       style="fill:#ff00e0;fill-opacity:1;stroke:none;stroke-width:2;stroke-linecap:round;stroke-linejoin:round;stroke-dasharray:none;stroke-opacity:1"
       id="path19"
       cx="107.9991"
       cy="152.35284"
       rx="1.0043668"
       ry="1.705618" /><ellipse
       style="fill:#00ff49;fill-opacity:1;stroke:none;stroke-width:2;stroke-linecap:round;stroke-linejoin:round;stroke-dasharray:none;stroke-opacity:1"
       id="path20"
       cx="106.34267"
       cy="144.75276"
       rx="1.5308701"
       ry="0.90283185" /><ellipse
       style="fill:#00ff49;fill-opacity:1;stroke:none;stroke-width:2;stroke-linecap:round;stroke-linejoin:round;stroke-dasharray:none;stroke-opacity:1"
       id="path21"
       cx="123.68465"
       cy="121.67381"
       rx="1.2961129"
       ry="1.6725476"
       transform="rotate(11.010488)" /></g></svg>
