<?xml version="1.0" encoding="UTF-8" standalone="no"?>
<!-- Created with Inkscape (http://www.inkscape.org/) -->

<svg
   width="44.255482mm"
   height="38.462784mm"
   viewBox="0 0 44.255481 38.462784"
   version="1.1"
   id="svg17504"
   inkscape:version="1.2.2 (b0a8486541, 2022-12-01)"
   sodipodi:docname="spadethink.svg"
   xml:space="preserve"
   inkscape:export-filename="spadethink.png"
   inkscape:export-xdpi="300"
   inkscape:export-ydpi="300"
   xmlns:inkscape="http://www.inkscape.org/namespaces/inkscape"
   xmlns:sodipodi="http://sodipodi.sourceforge.net/DTD/sodipodi-0.dtd"
   xmlns="http://www.w3.org/2000/svg"
   xmlns:svg="http://www.w3.org/2000/svg"><sodipodi:namedview
     id="namedview17506"
     pagecolor="#505050"
     bordercolor="#eeeeee"
     borderopacity="1"
     inkscape:pageshadow="0"
     inkscape:pageopacity="0"
     inkscape:pagecheckerboard="0"
     inkscape:document-units="mm"
     showgrid="false"
     inkscape:zoom="1"
     inkscape:cx="152"
     inkscape:cy="43.5"
     inkscape:window-width="2530"
     inkscape:window-height="1434"
     inkscape:window-x="3"
     inkscape:window-y="3"
     inkscape:window-maximized="1"
     inkscape:current-layer="layer1"
     inkscape:showpageshadow="0"
     inkscape:deskcolor="#505050" /><defs
     id="defs17501" /><g
     inkscape:label="Layer 1"
     inkscape:groupmode="layer"
     id="layer1"
     transform="translate(-2.919,-3.594661)"><path
       style="fill:#ffffff;stroke-width:1.00157;stroke-linecap:round;stop-color:#000000"
       id="path3164"
       sodipodi:type="arc"
       sodipodi:cx="38.058918"
       sodipodi:cy="19.586395"
       sodipodi:rx="3.7157152"
       sodipodi:ry="3.7157152"
       sodipodi:start="0"
       sodipodi:end="6.2825046"
       sodipodi:open="true"
       sodipodi:arc-type="arc"
       d="m 41.774633,19.586395 a 3.7157152,3.7157152 0 0 1 -3.715083,3.715715 3.7157152,3.7157152 0 0 1 -3.716347,-3.71445 3.7157152,3.7157152 0 0 1 3.713818,-3.716979 3.7157152,3.7157152 0 0 1 3.717611,3.713185" /><path
       id="path857-9-3-8-2-4-2-5-4-4-0-8-4-9-9-6-7-3-4"
       style="fill:#000000;fill-opacity:1;stroke:none;stroke-width:0.264583px;stroke-linecap:butt;stroke-linejoin:miter;stroke-opacity:1"
       d="m 11.72719,3.5953329 c -2.8741203,0.009 -4.3160103,0.87124 -4.3160103,0.87124 l 0.0103,0.0336 -0.0346,-0.008 c 0.11425,0.80915 7.4786103,6.8544101 7.4326203,9.9337801 -0.1733,2.50537 -0.89269,3.19117 -1.44842,4.89122 -4.3304603,-5.86317 -9.8154602,-6.06999 -10.3476902,-6.07663 h -0.0579 l -0.005,0.0206 -0.0191,-0.0135 c -0.25191,0.58857 1.7049899,4.74784 1.7049899,8.64341 0,3.89554 -1.9568999,8.05482 -1.7049899,8.64338 l 0.0191,-0.0145 0.005,0.0212 c 0,0 5.8791999,0.13094 10.5838402,-6.40012 0.51808,1.33266 1.12539,3.62599 0.96164,5.27302 -0.33475,1.84571 -6.7248903,8.84267 -6.8264603,9.61284 l 0.0346,-0.008 -0.0103,0.0341 c 0,0 4.8673803,2.1002 16.4584303,-2.45928 2.70309,-1.06331 4.84249,-1.93694 6.90655,-2.74402 0.25231,3.0203 1.50548,6.6457 1.82058,7.02024 l 0.013,-0.0228 0.013,0.0228 c 0,0 4.90791,-0.9281 6.74637,-11.08874 5.06232,-3.81444 6.13915,-7.95247 6.13915,-7.95247 l -0.0491,-0.0284 0.0491,-0.0284 c 0,0 -1.37107,-9.02922 -19.72437,-14.9774001 -6.07986,-1.97043 -11.54821,-3.20908 -14.35417,-3.19979 z M 38.00672,16.309273 c 1.9254,-3e-5 3.48633,1.5607 3.48662,3.4861 0,0.9217 -0.36673,1.80554 -1.0175,2.45824 -0.813924,0.684936 -1.602062,1.048497 -2.416922,1.048497 -0.92626,0 -1.638568,-0.380803 -2.280998,-0.828367 -0.7961,-0.66174 -1.2578,-1.64311 -1.2578,-2.67837 2.6e-4,-1.92543 1.56117,-3.48613 3.4866,-3.4861 z"
       sodipodi:nodetypes="ccccccccccsccccccccsccccccccsccsccsccs"
       inkscape:export-filename="/home/ed/spadefish.png"
       inkscape:export-xdpi="300"
       inkscape:export-ydpi="300" /><path
       style="fill:#ffa10f;fill-opacity:1;stroke:none;stroke-width:0.264583px;stroke-linecap:butt;stroke-linejoin:miter;stroke-opacity:1"
       d="m 25.7215,37.633142 c -1.48875,-5.057659 -0.278193,-6.886776 1.142032,-8.119195 1.420222,-1.232419 2.933292,-2.617382 2.990731,-4.243482 0.05743,-1.6261 -0.287137,-2.181421 -0.396405,-2.869378 -0.109267,-0.687957 0.0471,-1.069299 0.407059,-1.226256 0.359963,-0.156956 2.021274,-0.509593 2.884803,1.296033 0.863528,1.805627 1.283287,3.667213 0.977871,4.855243 -0.30542,1.188031 -1.298242,2.189716 -1.298242,2.189716 0,0 0.08368,0.421932 2.998785,-0.259907 2.915105,-0.68184 8.165827,-2.013484 9.320823,-2.271219 1.154996,-0.257735 2.198233,0.09455 2.347886,0.786031 0.149654,0.691478 0.175871,1.75906 -0.800843,2.040857 -0.976715,0.281797 -7.000304,1.736737 -7.000304,1.736737 0,0 1.239449,0.236711 1.267447,1.612342 0.028,1.37563 -1.147601,1.894465 -1.147601,1.894465 0,0 1.062572,0.245817 1.087316,1.434778 0.02474,1.188961 -1.384221,1.619949 -1.384221,1.619949 0,0 0.782072,0.414886 0.756338,1.083247 -0.02574,0.668361 -0.959069,1.480265 -1.41777,1.690263 -0.458702,0.209997 -4.071247,1.208567 -5.569778,1.173162 -1.498528,-0.03541 -4.139911,-0.454621 -5.486339,-2.143386 -1.346427,-1.688766 -1.679588,-2.28 -1.679588,-2.28 z"
       id="path1183" /><path
       style="fill:none;stroke:#ffffff;stroke-width:1.265;stroke-linecap:round;stroke-linejoin:miter;stroke-dasharray:none;stroke-opacity:1"
       d="m 32.801417,15.438208 c 4.420902,-1.634888 5.761503,-1.541696 9.256588,-0.0017"
       id="path1250" /><path
       style="fill:#ffffff;fill-opacity:1;stroke:none;stroke-width:0.264583px;stroke-linecap:butt;stroke-linejoin:miter;stroke-opacity:1"
       d="m 42.77106,26.918672 c -1.715657,-0.707213 -3.34981,-0.921519 -4.763301,-1.028767 -1.413491,-0.107249 -0.181075,-1.374105 0.06925,-1.363287 1.677378,0.07249 4.109258,0.35677 5.640929,1.220349"
       id="path1252"
       sodipodi:nodetypes="cssc" /></g></svg>
