<?xml version="1.0" encoding="UTF-8" standalone="no"?>
<!-- Created with Inkscape (http://www.inkscape.org/) -->

<svg
   width="42.88689mm"
   height="37.275253mm"
   viewBox="0 0 42.88689 37.275253"
   version="1.1"
   id="svg17504"
   inkscape:version="1.2.1 (9c6d41e410, 2022-07-14, custom)"
   sodipodi:docname="spadesquint.svg"
   xml:space="preserve"
   inkscape:export-filename="spadesquint.png"
   inkscape:export-xdpi="300"
   inkscape:export-ydpi="300"
   xmlns:inkscape="http://www.inkscape.org/namespaces/inkscape"
   xmlns:sodipodi="http://sodipodi.sourceforge.net/DTD/sodipodi-0.dtd"
   xmlns="http://www.w3.org/2000/svg"
   xmlns:svg="http://www.w3.org/2000/svg"><sodipodi:namedview
     id="namedview17506"
     pagecolor="#505050"
     bordercolor="#eeeeee"
     borderopacity="1"
     inkscape:pageshadow="0"
     inkscape:pageopacity="0"
     inkscape:pagecheckerboard="0"
     inkscape:document-units="mm"
     showgrid="false"
     inkscape:zoom="5.1241864"
     inkscape:cx="101.47952"
     inkscape:cy="62.936821"
     inkscape:window-width="2518"
     inkscape:window-height="1062"
     inkscape:window-x="1926"
     inkscape:window-y="1086"
     inkscape:window-maximized="1"
     inkscape:current-layer="layer1"
     inkscape:showpageshadow="2"
     inkscape:deskcolor="#505050" /><defs
     id="defs17501" /><g
     inkscape:label="Layer 1"
     inkscape:groupmode="layer"
     id="layer1"
     transform="translate(-2.919,-3.594661)"><path
       style="fill:#ffffff;stroke-width:1.00157;stroke-linecap:round;stop-color:#000000"
       id="path3164"
       sodipodi:type="arc"
       sodipodi:cx="38.058918"
       sodipodi:cy="19.586395"
       sodipodi:rx="3.7157152"
       sodipodi:ry="3.7157152"
       sodipodi:start="0"
       sodipodi:end="6.2825046"
       sodipodi:open="true"
       sodipodi:arc-type="arc"
       d="m 41.774633,19.586395 a 3.7157152,3.7157152 0 0 1 -3.715083,3.715715 3.7157152,3.7157152 0 0 1 -3.716347,-3.71445 3.7157152,3.7157152 0 0 1 3.713818,-3.716979 3.7157152,3.7157152 0 0 1 3.717611,3.713185" /><path
       id="path857-9-3-8-2-4-2-5-4-4-0-8-4-9-9-6-7-3-4"
       style="fill:#000000;fill-opacity:1;stroke:none;stroke-width:0.264583px;stroke-linecap:butt;stroke-linejoin:miter;stroke-opacity:1"
       d="m 11.72719,3.5953329 c -2.8741203,0.009 -4.3160103,0.87124 -4.3160103,0.87124 l 0.0103,0.0336 -0.0346,-0.008 c 0.11425,0.80915 7.4786103,6.8544101 7.4326203,9.9337801 -0.1733,2.50537 -0.89269,3.19117 -1.44842,4.89122 -4.3304603,-5.86317 -9.8154602,-6.06999 -10.3476902,-6.07663 h -0.0579 l -0.005,0.0206 -0.0191,-0.0135 c -0.25191,0.58857 1.7049899,4.74784 1.7049899,8.64341 0,3.89554 -1.9568999,8.05482 -1.7049899,8.64338 l 0.0191,-0.0145 0.005,0.0212 c 0,0 5.8791999,0.13094 10.5838402,-6.40012 0.51808,1.33266 1.12539,3.62599 0.96164,5.27302 -0.33475,1.84571 -6.7248903,8.84267 -6.8264603,9.61284 l 0.0346,-0.008 -0.0103,0.0341 c 0,0 4.8673803,2.1002 16.4584303,-2.45928 2.70309,-1.06331 4.84249,-1.93694 6.90655,-2.74402 0.25231,3.0203 1.50548,6.6457 1.82058,7.02024 l 0.013,-0.0228 0.013,0.0228 c 0,0 4.90791,-0.9281 6.74637,-11.08874 5.06232,-3.81444 6.13915,-7.95247 6.13915,-7.95247 l -0.0491,-0.0284 0.0491,-0.0284 c 0,0 -1.37107,-9.02922 -19.72437,-14.9774001 -6.07986,-1.97043 -11.54821,-3.20908 -14.35417,-3.19979 z M 38.00672,16.309273 c 1.9254,-3e-5 3.48633,1.5607 3.48662,3.4861 0,0.9217 -0.36673,1.80554 -1.0175,2.45824 -0.62635,-0.52125 -1.4155,-0.80666 -2.23036,-0.80666 -0.92626,0 -1.81409,0.37036 -2.46756,1.02679 -0.7961,-0.66174 -1.2578,-1.64311 -1.2578,-2.67837 2.6e-4,-1.92543 1.56117,-3.48613 3.4866,-3.4861 z"
       sodipodi:nodetypes="ccccccccccsccccccccsccccccccsccsccsccs"
       inkscape:export-filename="/home/ed/spadefish.png"
       inkscape:export-xdpi="300"
       inkscape:export-ydpi="300" /><g
       id="g58142"
       transform="matrix(0.75317897,0,0,0.75317897,-2.602325,29.682766)"
       style="stroke-width:1.32771"><path
         style="opacity:1;fill:#676767;fill-opacity:1;stroke:none;stroke-width:0.351841;stroke-linecap:round;stroke-dasharray:0.351841, 0.351841;stop-color:#000000"
         id="path57388"
         sodipodi:type="arc"
         sodipodi:cx="50.955486"
         sodipodi:cy="-11.815788"
         sodipodi:rx="7.9281015"
         sodipodi:ry="9.1412287"
         sodipodi:start="0"
         sodipodi:end="6.2825046"
         sodipodi:open="true"
         sodipodi:arc-type="arc"
         d="m 58.883588,-11.815788 a 7.9281015,9.1412287 0 0 1 -7.926753,9.1412283 7.9281015,9.1412287 0 0 1 -7.92945,-9.1381173 7.9281015,9.1412287 0 0 1 7.924054,-9.144339 7.9281015,9.1412287 0 0 1 7.932147,9.135005" /><path
         id="rect57805"
         style="opacity:1;fill:#ffffff;fill-opacity:1;stroke:none;stroke-width:0.351841;stroke-linecap:round;stroke-dasharray:none;stroke-opacity:1;stop-color:#000000"
         d="m 43.274676,-9.5714604 a 7.9281015,9.1412287 0 0 0 1.449007,3.402893 h 12.465389 a 7.9281015,9.1412287 0 0 0 1.451591,-3.402893 z" /><path
         id="path57874"
         style="opacity:1;fill:#000000;fill-opacity:1;stroke:none;stroke-width:0.351841;stroke-linecap:round;stroke-dasharray:none;stroke-opacity:1;stop-color:#000000"
         d="m 51.800771,-9.5714604 a 2.6113789,2.6113789 0 0 0 -0.797884,1.8779215 2.6113789,2.6113789 0 0 0 0.494026,1.5249715 h 4.236434 a 2.6113789,2.6113789 0 0 0 0.492477,-1.526005 v -0.00155 a 2.6113789,2.6113789 0 0 0 -0.798401,-1.8753377 z" /></g></g></svg>
