<?xml version="1.0" encoding="UTF-8" standalone="no"?>
<!-- Created with Inkscape (http://www.inkscape.org/) -->

<svg
   version="1.1"
   id="svg1"
   width="107.40915"
   height="79.803711"
   viewBox="0 0 107.40915 79.803711"
   sodipodi:docname="spatenfisch.svg"
   inkscape:version="1.3 (0e150ed6c4, 2023-07-21)"
   xml:space="preserve"
   xmlns:inkscape="http://www.inkscape.org/namespaces/inkscape"
   xmlns:sodipodi="http://sodipodi.sourceforge.net/DTD/sodipodi-0.dtd"
   xmlns:xlink="http://www.w3.org/1999/xlink"
   xmlns="http://www.w3.org/2000/svg"
   xmlns:svg="http://www.w3.org/2000/svg"><defs
     id="defs1"><linearGradient
       id="linearGradient13"
       inkscape:collect="always"><stop
         style="stop-color:#9e9fa9;stop-opacity:1;"
         offset="0"
         id="stop13" /><stop
         style="stop-color:#8081a5;stop-opacity:1;"
         offset="1"
         id="stop14" /></linearGradient><linearGradient
       id="linearGradient11"
       inkscape:collect="always"><stop
         style="stop-color:#f2e88d;stop-opacity:1;"
         offset="0"
         id="stop11" /><stop
         style="stop-color:#dcdcd3;stop-opacity:1;"
         offset="1"
         id="stop12" /></linearGradient><linearGradient
       id="linearGradient9"
       inkscape:collect="always"><stop
         style="stop-color:#d84606;stop-opacity:0.98328179;"
         offset="0"
         id="stop9" /><stop
         style="stop-color:#ffd609;stop-opacity:0.96433711;"
         offset="1"
         id="stop10" /></linearGradient><linearGradient
       inkscape:collect="always"
       xlink:href="#linearGradient9"
       id="linearGradient10"
       x1="-102.66669"
       y1="24.196039"
       x2="-103.34237"
       y2="60.558388"
       gradientUnits="userSpaceOnUse"
       gradientTransform="translate(112.25371,3.4494174)" /><linearGradient
       inkscape:collect="always"
       xlink:href="#linearGradient11"
       id="linearGradient12"
       x1="-103.25269"
       y1="21.502132"
       x2="-103.07742"
       y2="32.200027"
       gradientUnits="userSpaceOnUse"
       gradientTransform="translate(112.25371,3.4494174)" /><linearGradient
       inkscape:collect="always"
       xlink:href="#linearGradient13"
       id="linearGradient14"
       x1="-85.723495"
       y1="54.674664"
       x2="-84.189514"
       y2="19.164036"
       gradientUnits="userSpaceOnUse"
       gradientTransform="translate(112.25371,3.4494174)" /></defs><sodipodi:namedview
     id="namedview1"
     pagecolor="#676767"
     bordercolor="#999999"
     borderopacity="1"
     inkscape:showpageshadow="0"
     inkscape:pageopacity="0"
     inkscape:pagecheckerboard="0"
     inkscape:deskcolor="#d1d1d1"
     inkscape:zoom="8.34386"
     inkscape:cx="59.085363"
     inkscape:cy="48.59861"
     inkscape:window-width="1885"
     inkscape:window-height="1190"
     inkscape:window-x="0"
     inkscape:window-y="0"
     inkscape:window-maximized="1"
     inkscape:current-layer="g8"
     showgrid="false" /><g
     inkscape:groupmode="layer"
     inkscape:label="Image"
     id="g1"
     transform="translate(3.2514725,6.5968204)"><path
       style="fill:#ffffff;stroke:none;stroke-width:1px;stroke-linecap:butt;stroke-linejoin:miter;stroke-opacity:1"
       d="m 92.441506,71.828929 c -0.437401,-5.600115 -8.908548,-12.231166 -8.908548,-12.231166 0,0 0.225318,-13.119347 -5.888956,-24.563997 C 71.529727,23.589115 69.178032,22.020988 64.004237,18.258408 58.830442,14.495829 50.521054,11.046743 45.817664,9.7924391 41.114274,8.5381356 38.606451,8.0854244 34.873273,7.6275562 28.766766,6.8786028 29.391589,7.2692309 29.391589,7.2692309 c 1.207392,4.4332681 1.366851,8.5581841 2.143352,12.7594041 0,0 -3.953384,-3.128804 -4.742535,-3.880346 -3.292506,-3.135594 -4.546561,-4.193923 -4.546561,-4.193923 0,0 -1.323159,1.405754 -1.793481,2.699203 -0.470323,1.293448 -1.926891,5.417439 -2.554042,8.357057 -0.627152,2.939619 -1.293532,6.075129 -1.332677,9.053976 -0.03915,2.978847 0.313576,5.957611 0.313576,5.957611 0,0 -0.940562,-1.254138 -2.194866,-2.077265 -1.254303,-0.823126 -3.605998,-2.077347 -4.9385923,-1.998973 -1.332594,0.07837 -1.8887381,0.975652 -2.2806872,3.209745 -0.3919492,2.234094 0.5867651,4.666397 0.939569,5.881389 0.3528039,1.214993 2.1055495,4.825593 2.1055495,4.825593 z"
       id="path983"
       sodipodi:nodetypes="ccssssccscssscsssscc" /><path
       style="fill:#030303;stroke:none"
       d="m 30.72,8.32 1.92,13.76 -10.56,-8.96 c -3.392649,6.438501 -5.115903,16.456333 -4.425679,23.68 0.39752,4.160308 1.901962,8.072051 2.505679,12.16 H 19.84 C 18.628286,41.918213 16.635295,37.493071 9.6,35.2 c -1.5746906,3.216841 -0.7047363,9.276016 2.345186,11.570122 2.074397,1.560332 5.662166,1.822759 8.123457,2.476792 3.346198,0.88918 6.553244,2.447041 10.011357,2.913086 -0.988311,-3.038379 -4.112507,-9.092397 -2.002468,-12.125186 1.248943,-1.795122 3.456406,-1.247705 5.202468,-0.649628 3.496121,1.197522 7.380964,3.368437 8,7.334814 h -0.32 c -1.561155,-3.280918 -4.569292,-5.198335 -8,-6.161235 -1.31489,-0.369053 -3.557612,-1.085161 -4.058271,0.74 -0.740335,2.698911 1.274052,10.303774 3.771853,11.724199 C 36.901763,55.427402 43.018804,56.112188 47.68,57.510371 58.967661,60.896235 70.263179,64.302896 81.6,67.52 83.000596,49.772515 76.216514,29.182549 61.12,18.889136 52.134883,12.76272 41.178057,10.261567 30.72,8.32 M 41.6,33.6 c 0.802773,-2.532422 0.738667,-5.041563 -1.92,-6.4 0.415798,-0.991216 0.847834,-1.976924 1.668149,-2.709385 5.431602,-4.849897 14.34814,5.194966 6.651607,9.57877 C 47.121909,34.56939 46.134189,34.861748 45.12,34.853335 43.80498,34.842427 42.706357,34.242568 41.6,33.6 M 83.52,60.8 84.168887,67.927158 90.56,70.08 C 89.511357,66.918394 86.092773,62.88103 83.52,60.8 Z"
       id="path1"
       sodipodi:nodetypes="cccscccsscssccsssscscccsssccccc" /><path
       style="fill:#ffffff;stroke:#ffffff;stroke-width:1.8;stroke-linecap:round;stroke-linejoin:miter;stroke-dasharray:none;stroke-opacity:1"
       d="M 94.199219,72.343088 2.0127119,45.377052"
       id="path982" /><g
       id="g8"
       transform="matrix(0.38670028,0.35308523,-0.35308523,0.38670028,41.26709,-18.427983)"><path
         style="fill:#155724;stroke:#0e3c19;stroke-width:4.1;stroke-linecap:butt;stroke-linejoin:miter;stroke-dasharray:none;stroke-opacity:1"
         d="m 38.965839,14.796743 c -25.39857,15.677966 -16.23417,22.095398 -7.83898,26.338718 10.4455,5.279638 22.75304,6.994115 36.37248,7.211997 15.36283,0.245772 63.247131,-6.203937 72.026921,-12.788948 8.77979,-6.58501 11.06039,-15.285357 14.82954,-19.820957 3.60738,-4.340943 -16.9326,-8.1528072 -16.9326,-8.1528072 -12.19366,-13.157262 -0.37121,-20.4991008 -10.56155,-25.5662168 -26.80472,-13.328563 -52.503881,-18.056241 -65.832451,-4.308753 -3.68598,3.801824 -8.64308,8.572781 -10.19864,15.4093378 -2.40652,10.576445 -3.84969,12.558239 -11.86472,21.6776292 z"
         id="path2"
         sodipodi:nodetypes="csssscsssc" /><path
         style="fill:#c1c1c1;stroke:#000000;stroke-width:2;stroke-linecap:butt;stroke-linejoin:miter;stroke-dasharray:none;stroke-opacity:1"
         d="m 95.465564,28.160158 c 7.670986,-5.082752 9.642146,-5.299351 10.672686,-6.360369 1.03054,-1.061017 3.61336,-9.325256 10.03437,-13.0735886 6.42102,-3.7483333 23.20529,-13.5163947 32.00967,-14.1849212 8.80439,-0.6685265 12.63624,0.157232 5.40129,6.9377368 -7.23496,6.7805054 -27.15301,18.4391 -30.51546,19.157771 -3.36244,0.718673 -6.8616,1.327625 -10.59661,2.287039 -3.73502,0.95941 -12.980346,5.951117 -14.234846,6.562841 -1.25449,0.611726 -3.54647,-0.378636 -2.7711,-1.326477 z"
         id="path8"
         sodipodi:nodetypes="ssssssssss" /><path
         style="fill:#0e232e;stroke:none;stroke-width:1px;stroke-linecap:butt;stroke-linejoin:miter;stroke-opacity:1"
         d="m 44.433219,7.0794868 c -2.73661,-0.07292 -3.70453,1.186117 -3.76962,2.881985 -0.0686,1.7867172 34.80994,7.7606652 51.66084,9.7559572 16.850901,1.995292 39.406661,5.144954 45.618901,2.716023 6.4796,-2.53347 4.82795,-6.255683 2.93804,-5.598475 0,0 -1.33003,1.108131 -4.43439,1.995292 -3.10436,0.88716 -21.0634,0 -44.343991,-3.325799 -23.28059,-3.325799 -47.66978,-8.4249832 -47.66978,-8.4249832 z"
         id="path3"
         sodipodi:nodetypes="cssscssc" /><path
         style="fill:#dc0000;stroke:none;stroke-width:1px;stroke-linecap:butt;stroke-linejoin:miter;stroke-opacity:1"
         d="m 40.931949,10.059459 c -2.2172,2.661013 -0.64568,3.671626 -0.64568,3.671626 0,0 23.28012,5.764437 37.47048,7.53829 14.19035,1.773853 44.122081,5.321091 49.886981,5.321091 5.76491,0 12.19507,-1.1086 13.74701,-2.217199 1.55195,-1.1086 2.44015,-4.44827 1.10965,-4.892084 -1.33051,-0.443815 -3.32685,3.118699 -9.09175,3.562045 -5.76491,0.443346 -40.796751,-3.326267 -47.891691,-4.212959 -7.09495,-0.886693 -36.55682,-7.043079 -39.88262,-7.708332 -3.3258,-0.665254 -4.70238,-1.062478 -4.70238,-1.062478 z"
         id="path4"
         sodipodi:nodetypes="ccsssssssc" /><path
         style="fill:#ffc022;stroke:none;stroke-width:1px;stroke-linecap:butt;stroke-linejoin:miter;stroke-opacity:1"
         d="m 39.864229,12.921003 c -1.64609,-0.783898 -1.88112,1.959746 -1.25414,2.900391 0.62699,0.940645 17.63407,6.71833 30.38296,8.381229 12.7489,1.662899 35.061811,4.683225 41.602451,4.904898 6.54065,0.221673 14.85538,1.330273 21.06339,0.221673 6.20802,-1.1086 9.42287,-0.221673 10.08812,-2.217199 0.66525,-1.995526 0.77621,-2.993406 -0.11072,-2.882453 -0.88693,0.110954 -6.42992,2.106246 -11.6403,2.217199 -5.21037,0.110954 -28.29948,-2.358115 -40.604801,-3.91006 -12.30531,-1.551946 -26.18668,-3.966942 -33.50353,-5.297215 -7.31686,-1.330273 -16.02343,-4.318463 -16.02343,-4.318463 z"
         id="path5"
         sodipodi:nodetypes="csssssssssc" /><path
         style="fill:#228c3a;stroke:#0e3c19;stroke-width:4.1;stroke-linecap:butt;stroke-linejoin:miter;stroke-dasharray:none;stroke-opacity:1"
         d="m 49.673269,46.890228 c 31.35593,-5.017214 70.224441,-13.932402 78.220341,-17.5384 7.99589,-3.605999 18.65664,-9.093287 20.38135,-11.131489 1.72471,-2.038202 2.3517,-7.211997 2.3517,-7.211997 0,0 3.606,0.627318 4.38989,2.979013 0.7839,2.351694 -8.62255,18.970471 -16.30495,22.73305 -7.6824,3.76258 -43.885721,10.021517 -55.644201,10.805416 -11.75847,0.783898 -33.39413,-0.635593 -33.39413,-0.635593 z"
         id="path6"
         sodipodi:nodetypes="csscsssc" /></g><g
       id="g14"
       transform="translate(3.3257988,-2.4391064)"><path
         style="fill:url(#linearGradient14);stroke:none;stroke-width:1px;stroke-linecap:butt;stroke-linejoin:miter;stroke-opacity:1"
         d="m 21.991965,54.415096 c 4.711548,-0.997764 5.875566,-1.025385 7.150479,-2.799238 1.274913,-1.773853 1.860152,-5.355687 1.749315,-9.512936 -0.110836,-4.157248 0.01544,-7.127884 -2.423554,-9.511397 -2.438989,-2.383512 -5.992498,-2.225522 -5.992498,-2.225522 l -0.74515,4.536183 c 0,0 1.940049,-0.77609 3.436635,-0.886927 1.496586,-0.110836 2.43899,1.27503 2.43899,4.101889 0,2.826859 -0.217226,9.634354 -0.771526,10.57664 -0.5543,0.942286 -3.658425,1.884455 -5.321325,1.995409"
         id="path12"
         sodipodi:nodetypes="csssccsssc" /><path
         style="fill:url(#linearGradient10);stroke:#9e9fa9;stroke-width:1px;stroke-linecap:butt;stroke-linejoin:miter;stroke-opacity:1"
         d="m -2.4414122,51.385817 c 0.77598,-7.870917 -1.44122,-23.058919 -1.44122,-23.058919 0,0 5.21037,1.330507 12.97057,1.219553 7.7601932,-0.110953 14.4117902,-1.441226 14.4117902,-1.441226 0,0 -2.549592,8.757843 -2.549592,14.966095 0,6.208251 2.438873,19.067866 2.438873,19.067866 0,0 -7.095178,2.217434 -14.7444212,2.439107 -7.64923996,0.221673 -12.95673,-2.542365 -12.95673,-2.542365 0,0 1.09476,-2.779194 1.87073,-10.650111 z"
         id="path9"
         sodipodi:nodetypes="scscscscs" /><path
         style="fill:#9e9fa9;fill-opacity:1;stroke:#9e9fa9;stroke-width:1px;stroke-linecap:butt;stroke-linejoin:miter;stroke-opacity:1"
         d="m -4.1806822,62.082892 c -1.48934,1.881289 -2.35153,1.019101 -1.64609,2.194948 0.70545,1.175848 9.01483,2.743644 14.11017,2.508442 5.0953432,-0.235203 15.6778042,-2.35153 16.7753612,-3.057138 1.097557,-0.705607 -1.724708,-0.783898 -1.802999,-1.646252 -9.389749,2.768087 -18.6677722,4.270106 -27.4364422,0 z"
         id="path10"
         sodipodi:nodetypes="cssscc" /><path
         style="fill:url(#linearGradient12);stroke:none;stroke-width:1px;stroke-linecap:butt;stroke-linejoin:miter;stroke-opacity:1"
         d="m -3.7582222,31.619808 c -2.05089,-0.388103 -2.60519,-3.491994 -0.72061,-4.766907 1.88457,-1.274913 5.43204004,-3.104009 8.42533,-2.2172 2.99329,0.88681 4.15713,1.71826 7.0395802,0.88681 2.882457,-0.83145 3.547593,-1.330273 6.041942,-0.498823 2.49435,0.83145 2.49435,0.886809 4.157249,-0.05548 1.662899,-0.942286 3.658309,-0.886809 3.935458,0.77609 0.27715,1.662899 -0.686839,2.236611 -0.665136,3.104009 0.05548,2.217199 -0.831332,2.660663 -1.219436,3.602949 -0.675834,1.64087 0.146338,2.721571 -0.997763,2.993172 -2.120599,0.503413 -2.38214,-4.978472 -3.492112,-5.044058 -2.945875,-0.174067 -3.104009,-0.166314 -4.822385,1.385749 -1.718377,1.552063 0.997645,3.048766 -2.217197,3.658426 -1.28523,0.24373 -1.38587,-4.212843 -2.3835202,-4.545352 -0.99764,-0.33251 -4.60071,-0.775973 -4.71154,0.05548 -0.11084,0.83145 -2.71591,0.110954 -2.9377,1.718377 -0.22179,1.607422 -2.88245,3.602948 -3.7139,1.718259 -0.83145,-1.88469 -0.22167,-2.106246 -1.71826,-2.771501 z"
         id="path11"
         sodipodi:nodetypes="ssssssssssssssssss" /></g><path
       style="fill:#000000;stroke:none;stroke-width:1px;stroke-linecap:butt;stroke-linejoin:miter;stroke-opacity:1"
       d="m 33.638484,52.462206 c -2.826858,-0.221673 -5.155011,-3.602831 -5.376684,-5.875507 -0.221673,-2.272676 -0.831567,-5.653835 -0.05548,-6.097298 0.77609,-0.443464 4.489992,-1.27503 6.208251,-0.388104 1.71826,0.886927 5.154895,3.547472 5.598358,4.434399"
       id="path14" /><path
       d="m 30.089366,52.166254 c -0.988311,-3.038379 -4.112507,-9.092397 -2.002468,-12.125186 1.248943,-1.795122 3.456406,-1.247705 5.202468,-0.649628 3.496121,1.197522 7.380964,3.368437 8,7.334814 h -0.32 c -1.561155,-3.280918 -4.569292,-5.198335 -8,-6.161235 -1.31489,-0.369053 -3.557612,-1.085161 -4.058271,0.74 -0.740335,2.698911 1.274052,10.303774 3.771853,11.724199"
       style="fill:#ffffff;stroke:none"
       id="path1-0" /><g
       id="g29"
       style="fill:#ffd52c;fill-opacity:0.254743"><ellipse
         style="fill:#ffd52c;fill-opacity:0.254743;stroke:none;stroke-width:2;stroke-dasharray:none;stroke-opacity:1"
         id="path15"
         cx="6.5027294"
         cy="51.578442"
         rx="0.27714992"
         ry="0.30488831" /><ellipse
         style="fill:#ffd52c;fill-opacity:0.254743;stroke:none;stroke-width:2;stroke-dasharray:none;stroke-opacity:1"
         id="path16"
         cx="9.6622152"
         cy="41.517887"
         rx="0.38798645"
         ry="0.38804498" /><ellipse
         style="fill:#ffd52c;fill-opacity:0.254743;stroke:none;stroke-width:2;stroke-dasharray:none;stroke-opacity:1"
         id="path17"
         cx="17.727301"
         cy="48.779205"
         rx="0.52656144"
         ry="0.94228625" /><ellipse
         style="fill:#ffd52c;fill-opacity:0.254743;stroke:none;stroke-width:2;stroke-dasharray:none;stroke-opacity:1"
         id="path18"
         cx="13.78125"
         cy="36.950886"
         rx="0.52661991"
         ry="0.74829304" /><ellipse
         style="fill:#ffd52c;fill-opacity:0.254743;stroke:none;stroke-width:2;stroke-dasharray:none;stroke-opacity:1"
         id="path19"
         cx="8.8202906"
         cy="32.959949"
         rx="0.33256817"
         ry="0.47114313" /><ellipse
         style="fill:#ffd52c;fill-opacity:0.254743;stroke:none;stroke-width:2;stroke-dasharray:none;stroke-opacity:1"
         id="path20"
         cx="4.263"
         cy="40.947906"
         rx="0.33256817"
         ry="0.47114313" /><circle
         style="fill:#ffd52c;fill-opacity:0.254743;stroke:none;stroke-width:2;stroke-dasharray:none;stroke-opacity:1"
         id="path21"
         cx="4.2907386"
         cy="34.850609"
         r="0.47114313" /><ellipse
         style="fill:#ffd52c;fill-opacity:0.254743;stroke:none;stroke-width:2;stroke-dasharray:none;stroke-opacity:1"
         id="path22"
         cx="13.671116"
         cy="45.177776"
         rx="0.33256817"
         ry="0.27714992" /><ellipse
         style="fill:#ffd52c;fill-opacity:0.254743;stroke:none;stroke-width:2;stroke-dasharray:none;stroke-opacity:1"
         id="path23"
         cx="14.12207"
         cy="52.229359"
         rx="0.33256817"
         ry="0.44340473" /><ellipse
         style="fill:#ffd52c;fill-opacity:0.254743;stroke:none;stroke-width:2;stroke-dasharray:none;stroke-opacity:1"
         id="path24"
         cx="18.334736"
         cy="43.582294"
         rx="0.38798645"
         ry="0.49882302" /><ellipse
         style="fill:#ffd52c;fill-opacity:0.254743;stroke:none;stroke-width:2;stroke-dasharray:none;stroke-opacity:1"
         id="path25"
         cx="21.771431"
         cy="37.678989"
         rx="0.44340473"
         ry="0.52661991" /><ellipse
         style="fill:#ffd52c;fill-opacity:0.254743;stroke:none;stroke-width:2;stroke-dasharray:none;stroke-opacity:1"
         id="path26"
         cx="20.219368"
         cy="33.228848"
         rx="0.38804498"
         ry="0.55429983" /><ellipse
         style="fill:#ffd52c;fill-opacity:0.254743;stroke:none;stroke-width:2;stroke-dasharray:none;stroke-opacity:1"
         id="path27"
         cx="18.286808"
         cy="54.487755"
         rx="0.49888152"
         ry="0.63745648" /><ellipse
         style="fill:#ffd52c;fill-opacity:0.254743;stroke:none;stroke-width:2;stroke-dasharray:none;stroke-opacity:1"
         id="path28"
         cx="12.272668"
         cy="57.176098"
         rx="0.36024806"
         ry="0.38798645" /><ellipse
         style="fill:#ffd52c;fill-opacity:0.254743;stroke:none;stroke-width:2;stroke-dasharray:none;stroke-opacity:1"
         id="path29"
         cx="6.7296696"
         cy="56.067497"
         rx="0.47120166"
         ry="0.38798645" /></g></g></svg>
